# xmcd
#
# Track frame offsets:
# 225
# 3045
# 14859
# 26198
# 43539
# 58463
# 66557
# 80284
# 95310
# 111207
# 129682
# 141398
# 154770
# 170272
# 188566
# 199575
# 211346
#
# Disc length: 2913 seconds
#
#
# Revision: 0
# Processed by: cddbd v1.4PL0 Copyright (c) Steve Scherf et al.
# Submitted via: FreeRIP 2.00 
#
DISCID=f10b5e11
DTITLE=Brothers of Mercy - Moments
DYEAR=2001
DGENRE=Blues
TTITLE0=Intro
TTITLE1=Pass me not
TTITLE2=Forever
TTITLE3=Moments - Presents
TTITLE4=The Sprit
TTITLE5=Throne of Glory
TTITLE6=Beautiful Moment
TTITLE7=A glorious Land
TTITLE8=I know
TTITLE9=Let us sing
TTITLE10=Moments - Process
TTITLE11=Tired Hearts
TTITLE12=Liliaceous
TTITLE13=Storms of Life
TTITLE14=Espiration
TTITLE15=Moments - Eternity
TTITLE16=Extro
EXTD=www.brothers-of-mercy.de
EXTT0=
EXTT1=
EXTT2=
EXTT3=
EXTT4=
EXTT5=
EXTT6=
EXTT7=
EXTT8=
EXTT9=
EXTT10=
EXTT11=
EXTT12=
EXTT13=
EXTT14=
EXTT15=
EXTT16=
PLAYORDER=
